<mxfile host="app.diagrams.net" agent="Mozilla/5.0 (Windows NT 10.0; Win64; x64) AppleWebKit/537.36 (KHTML, like Gecko) Chrome/129.0.0.0 Safari/537.36 Edg/129.0.0.0" version="24.8.4">
  <diagram id="C5RBs43oDa-KdzZeNtuy" name="Page-1">
    <mxGraphModel dx="762" dy="726" grid="1" gridSize="10" guides="1" tooltips="1" connect="1" arrows="1" fold="1" page="1" pageScale="1" pageWidth="827" pageHeight="1169" math="0" shadow="0">
      <root>
        <mxCell id="WIyWlLk6GJQsqaUBKTNV-0" />
        <mxCell id="WIyWlLk6GJQsqaUBKTNV-1" parent="WIyWlLk6GJQsqaUBKTNV-0" />
        <mxCell id="WIyWlLk6GJQsqaUBKTNV-3" value="Bắt đầu" style="rounded=1;whiteSpace=wrap;html=1;fontSize=12;glass=0;strokeWidth=1;shadow=0;" parent="WIyWlLk6GJQsqaUBKTNV-1" vertex="1">
          <mxGeometry x="160" y="80" width="120" height="40" as="geometry" />
        </mxCell>
        <mxCell id="GHUvW-37enlt3_4gwuxN-2" value="Nhập n, a[n], i, cnt" style="shape=parallelogram;perimeter=parallelogramPerimeter;whiteSpace=wrap;html=1;fixedSize=1;" vertex="1" parent="WIyWlLk6GJQsqaUBKTNV-1">
          <mxGeometry x="150" y="180" width="140" height="60" as="geometry" />
        </mxCell>
        <mxCell id="GHUvW-37enlt3_4gwuxN-3" value="" style="endArrow=classic;html=1;rounded=0;exitX=0.5;exitY=1;exitDx=0;exitDy=0;entryX=0.5;entryY=0;entryDx=0;entryDy=0;" edge="1" parent="WIyWlLk6GJQsqaUBKTNV-1" source="WIyWlLk6GJQsqaUBKTNV-3" target="GHUvW-37enlt3_4gwuxN-2">
          <mxGeometry width="50" height="50" relative="1" as="geometry">
            <mxPoint x="240" y="340" as="sourcePoint" />
            <mxPoint x="290" y="290" as="targetPoint" />
          </mxGeometry>
        </mxCell>
        <mxCell id="GHUvW-37enlt3_4gwuxN-13" value="" style="edgeStyle=orthogonalEdgeStyle;rounded=0;orthogonalLoop=1;jettySize=auto;html=1;" edge="1" parent="WIyWlLk6GJQsqaUBKTNV-1" source="GHUvW-37enlt3_4gwuxN-5" target="GHUvW-37enlt3_4gwuxN-12">
          <mxGeometry relative="1" as="geometry" />
        </mxCell>
        <mxCell id="GHUvW-37enlt3_4gwuxN-15" value="" style="edgeStyle=orthogonalEdgeStyle;rounded=0;orthogonalLoop=1;jettySize=auto;html=1;" edge="1" parent="WIyWlLk6GJQsqaUBKTNV-1" source="GHUvW-37enlt3_4gwuxN-5" target="GHUvW-37enlt3_4gwuxN-16">
          <mxGeometry relative="1" as="geometry">
            <mxPoint x="220" y="580" as="targetPoint" />
          </mxGeometry>
        </mxCell>
        <mxCell id="GHUvW-37enlt3_4gwuxN-5" value="Nếu i &amp;lt; n" style="rhombus;whiteSpace=wrap;html=1;" vertex="1" parent="WIyWlLk6GJQsqaUBKTNV-1">
          <mxGeometry x="150" y="410" width="140" height="80" as="geometry" />
        </mxCell>
        <mxCell id="GHUvW-37enlt3_4gwuxN-6" value="" style="endArrow=classic;html=1;rounded=0;exitX=0.5;exitY=1;exitDx=0;exitDy=0;entryX=0.5;entryY=0;entryDx=0;entryDy=0;" edge="1" parent="WIyWlLk6GJQsqaUBKTNV-1" source="GHUvW-37enlt3_4gwuxN-2" target="GHUvW-37enlt3_4gwuxN-10">
          <mxGeometry width="50" height="50" relative="1" as="geometry">
            <mxPoint x="240" y="340" as="sourcePoint" />
            <mxPoint x="290" y="290" as="targetPoint" />
          </mxGeometry>
        </mxCell>
        <mxCell id="GHUvW-37enlt3_4gwuxN-7" style="edgeStyle=orthogonalEdgeStyle;rounded=0;orthogonalLoop=1;jettySize=auto;html=1;exitX=0.5;exitY=1;exitDx=0;exitDy=0;" edge="1" parent="WIyWlLk6GJQsqaUBKTNV-1" source="GHUvW-37enlt3_4gwuxN-5" target="GHUvW-37enlt3_4gwuxN-5">
          <mxGeometry relative="1" as="geometry" />
        </mxCell>
        <mxCell id="GHUvW-37enlt3_4gwuxN-10" value="i = 0&lt;div&gt;cnt = 0&lt;/div&gt;" style="rounded=0;whiteSpace=wrap;html=1;" vertex="1" parent="WIyWlLk6GJQsqaUBKTNV-1">
          <mxGeometry x="160" y="290" width="120" height="60" as="geometry" />
        </mxCell>
        <mxCell id="GHUvW-37enlt3_4gwuxN-11" value="" style="endArrow=classic;html=1;rounded=0;entryX=0.5;entryY=0;entryDx=0;entryDy=0;exitX=0.5;exitY=1;exitDx=0;exitDy=0;" edge="1" parent="WIyWlLk6GJQsqaUBKTNV-1" source="GHUvW-37enlt3_4gwuxN-10" target="GHUvW-37enlt3_4gwuxN-5">
          <mxGeometry width="50" height="50" relative="1" as="geometry">
            <mxPoint x="220" y="360" as="sourcePoint" />
            <mxPoint x="290" y="290" as="targetPoint" />
          </mxGeometry>
        </mxCell>
        <mxCell id="GHUvW-37enlt3_4gwuxN-38" value="" style="edgeStyle=orthogonalEdgeStyle;rounded=0;orthogonalLoop=1;jettySize=auto;html=1;" edge="1" parent="WIyWlLk6GJQsqaUBKTNV-1" source="GHUvW-37enlt3_4gwuxN-12" target="GHUvW-37enlt3_4gwuxN-37">
          <mxGeometry relative="1" as="geometry" />
        </mxCell>
        <mxCell id="GHUvW-37enlt3_4gwuxN-12" value="In ra cnt" style="shape=parallelogram;perimeter=parallelogramPerimeter;whiteSpace=wrap;html=1;fixedSize=1;" vertex="1" parent="WIyWlLk6GJQsqaUBKTNV-1">
          <mxGeometry x="390" y="430" width="100" height="40" as="geometry" />
        </mxCell>
        <mxCell id="GHUvW-37enlt3_4gwuxN-19" value="" style="edgeStyle=orthogonalEdgeStyle;rounded=0;orthogonalLoop=1;jettySize=auto;html=1;" edge="1" parent="WIyWlLk6GJQsqaUBKTNV-1" source="GHUvW-37enlt3_4gwuxN-16" target="GHUvW-37enlt3_4gwuxN-18">
          <mxGeometry relative="1" as="geometry" />
        </mxCell>
        <mxCell id="GHUvW-37enlt3_4gwuxN-28" value="" style="edgeStyle=orthogonalEdgeStyle;rounded=0;orthogonalLoop=1;jettySize=auto;html=1;" edge="1" parent="WIyWlLk6GJQsqaUBKTNV-1" source="GHUvW-37enlt3_4gwuxN-16" target="GHUvW-37enlt3_4gwuxN-27">
          <mxGeometry relative="1" as="geometry" />
        </mxCell>
        <mxCell id="GHUvW-37enlt3_4gwuxN-16" value="Nếu a[i] % 2 != 0" style="rhombus;whiteSpace=wrap;html=1;" vertex="1" parent="WIyWlLk6GJQsqaUBKTNV-1">
          <mxGeometry x="160" y="560" width="120" height="80" as="geometry" />
        </mxCell>
        <mxCell id="GHUvW-37enlt3_4gwuxN-18" value="&lt;font style=&quot;font-size: 13px;&quot;&gt;cnt++&lt;/font&gt;&lt;div&gt;&lt;font style=&quot;font-size: 13px;&quot;&gt;i++&lt;/font&gt;&lt;/div&gt;" style="whiteSpace=wrap;html=1;" vertex="1" parent="WIyWlLk6GJQsqaUBKTNV-1">
          <mxGeometry x="170" y="740" width="100" height="50" as="geometry" />
        </mxCell>
        <mxCell id="GHUvW-37enlt3_4gwuxN-20" value="False" style="text;html=1;align=center;verticalAlign=middle;whiteSpace=wrap;rounded=0;" vertex="1" parent="WIyWlLk6GJQsqaUBKTNV-1">
          <mxGeometry x="310" y="420" width="60" height="30" as="geometry" />
        </mxCell>
        <mxCell id="GHUvW-37enlt3_4gwuxN-21" value="True" style="text;html=1;align=center;verticalAlign=middle;whiteSpace=wrap;rounded=0;" vertex="1" parent="WIyWlLk6GJQsqaUBKTNV-1">
          <mxGeometry x="210" y="670" width="60" height="30" as="geometry" />
        </mxCell>
        <mxCell id="GHUvW-37enlt3_4gwuxN-22" value="True" style="text;html=1;align=center;verticalAlign=middle;whiteSpace=wrap;rounded=0;" vertex="1" parent="WIyWlLk6GJQsqaUBKTNV-1">
          <mxGeometry x="210" y="520" width="60" height="30" as="geometry" />
        </mxCell>
        <mxCell id="GHUvW-37enlt3_4gwuxN-27" value="i++" style="whiteSpace=wrap;html=1;" vertex="1" parent="WIyWlLk6GJQsqaUBKTNV-1">
          <mxGeometry x="370" y="580" width="90" height="40" as="geometry" />
        </mxCell>
        <mxCell id="GHUvW-37enlt3_4gwuxN-32" value="" style="endArrow=classic;html=1;rounded=0;exitX=0.5;exitY=1;exitDx=0;exitDy=0;entryX=0;entryY=0.5;entryDx=0;entryDy=0;" edge="1" parent="WIyWlLk6GJQsqaUBKTNV-1" source="GHUvW-37enlt3_4gwuxN-18" target="GHUvW-37enlt3_4gwuxN-5">
          <mxGeometry width="50" height="50" relative="1" as="geometry">
            <mxPoint x="220" y="880" as="sourcePoint" />
            <mxPoint x="80" y="430" as="targetPoint" />
            <Array as="points">
              <mxPoint x="220" y="960" />
              <mxPoint x="80" y="960" />
              <mxPoint x="80" y="450" />
            </Array>
          </mxGeometry>
        </mxCell>
        <mxCell id="GHUvW-37enlt3_4gwuxN-34" value="" style="endArrow=classic;html=1;rounded=0;exitX=0.5;exitY=0;exitDx=0;exitDy=0;" edge="1" parent="WIyWlLk6GJQsqaUBKTNV-1" source="GHUvW-37enlt3_4gwuxN-27" target="GHUvW-37enlt3_4gwuxN-5">
          <mxGeometry width="50" height="50" relative="1" as="geometry">
            <mxPoint x="110" y="650" as="sourcePoint" />
            <mxPoint x="160" y="600" as="targetPoint" />
          </mxGeometry>
        </mxCell>
        <mxCell id="GHUvW-37enlt3_4gwuxN-35" value="False" style="text;html=1;align=center;verticalAlign=middle;whiteSpace=wrap;rounded=0;" vertex="1" parent="WIyWlLk6GJQsqaUBKTNV-1">
          <mxGeometry x="290" y="570" width="60" height="30" as="geometry" />
        </mxCell>
        <mxCell id="GHUvW-37enlt3_4gwuxN-37" value="Kết thúc" style="rounded=1;whiteSpace=wrap;html=1;" vertex="1" parent="WIyWlLk6GJQsqaUBKTNV-1">
          <mxGeometry x="560" y="430" width="110" height="40" as="geometry" />
        </mxCell>
      </root>
    </mxGraphModel>
  </diagram>
</mxfile>
